<svg xmlns="http://www.w3.org/2000/svg" viewBox="0 0 180 240">
  <defs>
    <filter id="rough"><feTurbulence type="fractalNoise" baseFrequency=".06" numOctaves="4"/><feDisplacementMap in="SourceGraphic" scale="5"/></filter>
    <pattern id="dots" width="5" height="5" patternUnits="userSpaceOnUse"><circle cx="1" cy="1" r=".8" fill="#111827" opacity=".35"/></pattern>
  </defs>
  <rect width="180" height="240" rx="22" fill="#d7d1c4"/>
  <rect width="180" height="240" fill="url(#dots)"/>
  <path d="M0 0h180v240H0z" fill="#09090b" opacity=".08"/>
  <path d="M34 0h40v240H34zM130 0h28v240h-28z" fill="#111" opacity=".24"/>
  <path d="M118 30l52 26-20 25 28 54-43-11-20 70-31-42-55 42 24-69-47-19 54-28z" fill="#991b1b" opacity=".78" filter="url(#rough)"/>
  <path d="M41 196c15-25 44-33 78-6v50H41z" fill="#080808"/>
  <circle cx="78" cy="124" r="27" fill="#151515"/>
  <path d="M42 127c27-30 61-28 83 2-28-8-55-8-83-2z" fill="#050505"/>
  <path d="M86 128c-11 20-23 33-43 43" stroke="#f8fafc" stroke-width="2" opacity=".32" fill="none"/>
  <path d="M18 15c40 24 82 32 144 17M5 78c48-22 102-24 170-3M16 220c43-16 91-16 148 3" stroke="#050505" stroke-width="4" opacity=".38" filter="url(#rough)"/>
</svg>
