<svg xmlns="http://www.w3.org/2000/svg" viewBox="0 0 180 240">
  <rect width="180" height="240" rx="22" fill="#f8fafc"/>
  <path d="M0 0h40v240H0zM141 0h39v240h-39zM58 0h7v240h-7zM117 0h9v240h-9z" fill="#020617"/>
  <path d="M48 205c20-28 48-32 85-5v40H48z" fill="#020617"/>
  <circle cx="84" cy="133" r="28" fill="#020617"/>
  <path d="M44 136c31-39 71-41 96-2-33-12-63-11-96 2z" fill="#020617"/>
  <path d="M98 92c22 22 38 50 48 84M53 91c-18 31-28 62-29 92" stroke="#020617" stroke-width="3" fill="none"/>
  <path d="M83 153c-13 17-27 28-46 37" stroke="#f8fafc" stroke-width="2" opacity=".85"/>
  <path d="M18 37h144M18 53h144M18 69h144M18 85h144" stroke="#020617" stroke-width="1" opacity=".22"/>
  <circle cx="116" cy="90" r="19" fill="#020617" opacity=".9"/>
  <path d="M130 65h39v9h-39zM132 83h27v7h-27zM124 105h43v8h-43z" fill="#f8fafc"/>
</svg>
