<svg xmlns="http://www.w3.org/2000/svg" viewBox="0 0 180 240">
  <defs>
    <linearGradient id="bg" x1="0" y1="0" x2="1" y2="1"><stop stop-color="#1d4ed8"/><stop offset=".58" stop-color="#38bdf8"/><stop offset="1" stop-color="#fbbf24"/></linearGradient>
    <radialGradient id="glow" cx=".75" cy=".28" r=".55"><stop stop-color="#fff7ed" stop-opacity=".7"/><stop offset="1" stop-color="#fff7ed" stop-opacity="0"/></radialGradient>
  </defs>
  <rect width="180" height="240" rx="22" fill="url(#bg)"/>
  <rect width="180" height="240" fill="url(#glow)"/>
  <path d="M0 166c50-22 111-25 180-6v80H0z" fill="#111827" opacity=".24"/>
  <rect x="108" y="68" width="44" height="90" rx="8" fill="#6b7280" opacity=".38"/>
  <path d="M37 198c20-22 45-21 70 0v42H37z" fill="#0f172a"/>
  <circle cx="72" cy="128" r="32" fill="#f2c7a5"/>
  <path d="M35 124c18-36 61-45 86-4-32-10-59-8-86 4z" fill="#0b1020"/>
  <circle cx="61" cy="133" r="5" fill="#0f172a"/>
  <circle cx="83" cy="133" r="5" fill="#0f172a"/>
  <path d="M61 152c9 6 20 6 30-1" stroke="#0f172a" stroke-width="3" stroke-linecap="round" fill="none"/>
  <path d="M115 116h27M116 132h24M116 148h18" stroke="#f8fafc" stroke-width="4" opacity=".6"/>
</svg>
