<svg xmlns="http://www.w3.org/2000/svg" viewBox="0 0 180 240">
  <defs>
    <linearGradient id="bg" x1="0" y1="0" x2="1" y2="1">
      <stop offset="0" stop-color="#020617"/>
      <stop offset="0.55" stop-color="#08233a"/>
      <stop offset="1" stop-color="#07111f"/>
    </linearGradient>
    <filter id="grain"><feTurbulence type="fractalNoise" baseFrequency=".9" numOctaves="3" stitchTiles="stitch"/><feColorMatrix type="saturate" values="0"/><feComponentTransfer><feFuncA type="table" tableValues="0 .16"/></feComponentTransfer></filter>
  </defs>
  <rect width="180" height="240" rx="22" fill="url(#bg)"/>
  <path d="M0 202h180v38H0z" fill="#030712"/>
  <path d="M25 0h26v205H25zM129 0h24v205h-24z" fill="#020617" opacity=".72"/>
  <path d="M52 128c22-29 48-46 82-55" stroke="#38bdf8" stroke-width="2" opacity=".34" fill="none"/>
  <ellipse cx="103" cy="79" rx="18" ry="54" fill="#67e8f9" opacity=".16"/>
  <path d="M42 189c19-15 38-15 57-1v52H42z" fill="#05070d"/>
  <circle cx="72" cy="142" r="17" fill="#061221"/>
  <path d="M48 143c15-20 41-21 56 0-19-7-37-7-56 0z" fill="#05070d"/>
  <path d="M117 145l35-6M119 158l32 8M119 171l34 1" stroke="#e5e7eb" stroke-width="1" opacity=".25"/>
  <rect width="180" height="240" fill="#fff" filter="url(#grain)" opacity=".25"/>
</svg>
