<svg xmlns="http://www.w3.org/2000/svg" viewBox="0 0 180 240">
  <defs>
    <linearGradient id="bg" x1="0" y1="0" x2="1" y2="1"><stop stop-color="#172554"/><stop offset=".62" stop-color="#1e1b4b"/><stop offset="1" stop-color="#111827"/></linearGradient>
    <radialGradient id="pink" cx=".72" cy=".18" r=".5"><stop stop-color="#f0abfc" stop-opacity=".62"/><stop offset="1" stop-color="#f0abfc" stop-opacity="0"/></radialGradient>
  </defs>
  <rect width="180" height="240" rx="22" fill="url(#bg)"/>
  <rect width="180" height="240" fill="url(#pink)"/>
  <path d="M10 54h28v186H10zM48 34h30v206H48zM116 20h24v220h-24zM148 56h20v184h-20z" fill="#0f172a" opacity=".72"/>
  <path d="M16 72h10M54 52h14M124 39h9M154 74h8M53 80h17M121 72h12M148 112h12" stroke="#67e8f9" stroke-width="5" opacity=".72"/>
  <path d="M38 197c18-18 41-20 68-4v47H38z" fill="#0b1020"/>
  <circle cx="72" cy="138" r="22" fill="#111827"/>
  <path d="M38 139c19-22 52-25 72 1-27-9-48-9-72-1z" fill="#080b14"/>
  <path d="M88 88c10 0 18 8 18 19v133H70V107c0-11 8-19 18-19z" fill="#0f172a" opacity=".42"/>
  <path d="M0 208c50-14 105-14 180 0" stroke="#38bdf8" stroke-width="3" opacity=".35"/>
</svg>
